<?xml version="1.0" encoding="UTF-8" ?>
<!DOCTYPE svg PUBLIC "-//W3C//DTD SVG 1.1//EN" "http://www.w3.org/Graphics/SVG/1.1/DTD/svg11.dtd">
<svg width="18pt" height="24pt" viewBox="0 0 18 24" version="1.1" xmlns="http://www.w3.org/2000/svg">
<g id="#fefefefe">
<path fill="#fefefe" opacity="1.00" d=" M 4.47 1.71 C 9.85 -2.14 17.70 2.64 17.67 8.98 C 17.63 14.87 13.20 19.26 9.88 23.66 C 9.43 23.66 8.54 23.67 8.09 23.67 C 5.32 20.01 2.09 16.49 0.73 12.01 C -0.53 8.25 1.15 3.82 4.47 1.71 M 6.29 3.53 C 3.72 4.59 3.23 7.46 2.63 9.86 C 3.64 14.07 6.43 17.44 9.00 20.79 C 11.44 17.44 14.46 14.23 15.26 10.01 C 15.84 5.46 10.55 1.02 6.29 3.53 Z" />
<path fill="#fefefe" opacity="1.00" d=" M 8.18 7.13 C 11.42 5.83 12.45 12.05 8.98 11.63 C 6.46 12.00 6.05 8.00 8.18 7.13 Z" />
</g>
</svg>
