<?xml version="1.0" encoding="UTF-8" ?>
<!DOCTYPE svg PUBLIC "-//W3C//DTD SVG 1.1//EN" "http://www.w3.org/Graphics/SVG/1.1/DTD/svg11.dtd">
<svg width="27pt" height="27pt" viewBox="0 0 27 27" version="1.1" xmlns="http://www.w3.org/2000/svg">
<g id="#bfbfbfbf">
<path fill="#bfbfbf" opacity="0.75" d=" M 7.42 2.63 C 11.65 -1.84 19.44 -0.00 21.82 5.44 C 23.53 9.08 22.72 15.97 17.31 15.27 C 19.45 12.54 21.46 8.43 18.67 5.39 C 15.86 1.18 9.03 2.53 7.49 7.16 C 6.43 10.12 8.33 12.83 9.83 15.19 C 3.20 15.73 3.22 5.74 7.42 2.63 Z" />
<path fill="#bfbfbf" opacity="0.75" d=" M 7.64 9.03 C 7.44 6.28 10.22 4.86 11.99 3.31 C 12.89 4.68 13.43 6.36 14.78 7.37 C 16.40 7.81 18.10 7.64 19.76 7.75 C 19.71 10.32 18.82 13.18 16.26 14.27 C 12.60 16.55 7.49 13.21 7.64 9.03 M 12.12 13.11 C 14.78 14.34 17.10 12.07 18.05 9.78 C 15.15 9.36 12.51 8.01 10.85 5.54 C 8.75 7.82 8.85 12.03 12.12 13.11 Z" />
<path fill="#bfbfbf" opacity="0.75" d=" M 5.07 15.93 C 10.04 15.49 15.05 15.78 20.04 15.74 C 23.27 15.44 26.23 18.03 26.89 21.11 C 27.08 23.02 26.96 24.93 26.97 26.84 C 18.01 27.06 9.01 27.13 0.06 26.79 C -0.62 22.62 0.43 17.25 5.07 15.93 M 4.34 19.30 C 2.64 20.41 3.03 22.67 2.72 24.39 C 5.99 24.43 9.26 24.34 12.52 24.54 C 13.14 22.30 10.57 20.97 9.34 19.49 C 8.10 17.89 5.76 18.03 4.34 19.30 M 10.46 18.33 C 11.46 19.45 12.50 20.54 13.57 21.60 C 14.66 20.51 15.73 19.40 16.81 18.31 C 14.70 18.32 12.58 18.32 10.46 18.33 M 14.46 24.54 C 17.81 24.34 21.17 24.44 24.53 24.36 C 24.98 21.30 22.60 17.13 19.12 18.61 C 17.45 20.31 14.03 21.75 14.46 24.54 Z" />
</g>
</svg>
